<svg version="1.1" preserveAspectRatio="none" xmlns="http://www.w3.org/2000/svg" width="500" height="500" viewBox="0 0 500 500"><rect width="100%" height="100%" fill="#F8EEFF" fill-opacity="1"/><svg viewBox="599.8692 358.3678 322.9409 250" width="333" height="257.78710593795955" x="83.5px" y="121.1064px" xmlns="http://www.w3.org/2000/svg" xmlns:xlink="http://www.w3.org/1999/xlink" preserveAspectRatio="none"><defs></defs><style>.aIptOCySncolors-3 {fill:#FF9E69;fill-opacity:1;}.aIptOCySncolors-4 {fill:#FEEAA3;fill-opacity:1;}.aIptOCySncolors-5 {fill:#885BAA;fill-opacity:1;}.aIptOCySncolors-6 {fill:#270D5D;fill-opacity:1;}.aIptOCySncolors-7 {fill:#000000;fill-opacity:1;}.companyName {fill:#BB90DB;fill-opacity:1;}.icon1 {fill:#BB90DB;fill-opacity:1;}.icon2 {fill:#FF5F08;fill-opacity:1;}.icon3 {fill:#FFD649;fill-opacity:1;}.icon3-str {stroke:#FFD649;stroke-opacity:1;}</style><g opacity="1" transform="rotate(0 711.3397 358.3678)">
<svg width="100" height="100" x="711.3397" y="358.3678" version="1.1" preserveAspectRatio="none" viewBox="20 19.5 160 160">
  <g transform="matrix(1 0 0 1 0 0)"><g><path d="M180 114.7l-80 40.7-80-40.7v-8.8l80 40.7 80-40.7v8.8z" data-color="1" class="icon1"></path><path d="M139.6 70.8L180 90.6v-8.5l-40.4-19.8" data-color="1" class="icon1"></path><path d="M60.4 62.3L20 82.1v8.5l40.3-19.8" data-color="1" class="icon1"></path><path d="M180 90.6l-80 40.7-80-40.7v-8.8l80 40.7 80-40.7v8.8z" data-color="1" class="icon1"></path><path d="M180 138.8l-80 40.7-80-40.7V130l80 40.7 80-40.7v8.8z" data-color="1" class="icon1"></path><path d="M139.6 62.3L100 42.9 60.4 62.3l-.1 8.6L100 51.4l39.6 19.4v-8.5z" data-color="2" class="icon2"></path><path d="M180 90.6l-80 40.7-80-40.7v-8.8l80 40.7 80-40.7v8.8z" data-color="1" class="icon1"></path><path d="M139.6 85.7L100 66.2 60.4 85.7l-.1 8.6L100 74.8l39.6 19.4v-8.5z" data-color="2" class="icon2"></path><path d="M139.6 38.9L100 19.5 60.4 38.9l-.1 8.6L100 28l39.6 19.4v-8.5z" data-color="2" class="icon2"></path></g></g>
</svg>
</g><g opacity="1" transform="rotate(0 599.8692 488.3678)">
<svg width="322.9409" height="120" x="599.8692" y="488.3678" version="1.1" preserveAspectRatio="none" viewBox="1.16 -28.64 186.35999999999999 69.28">
  <g transform="matrix(1 0 0 1 0 0)" class="companyName"><path id="id-D6z1nYkh12" d="M20.80-7.68L20.80-14.76L29-14.76L29-2.92Q26.52-1.20 23.24-0.28Q19.96 0.64 16.80 0.64L16.80 0.64Q12.32 0.64 8.76-1.22Q5.20-3.08 3.18-6.42Q1.16-9.76 1.16-14L1.16-14Q1.16-18.24 3.18-21.58Q5.20-24.92 8.82-26.78Q12.44-28.64 17-28.64L17-28.64Q21.12-28.64 24.38-27.26Q27.64-25.88 29.80-23.24L29.80-23.24L23.76-17.92Q21.12-21 17.48-21L17.48-21Q14.36-21 12.52-19.12Q10.68-17.24 10.68-14L10.68-14Q10.68-10.84 12.50-8.92Q14.32-7 17.36-7L17.36-7Q19.16-7 20.80-7.68L20.80-7.68Z M42.32-7.12L56.32-7.12L56.32 0L33.04 0L33.04-28L55.80-28L55.80-20.88L42.32-20.88L42.32-17.60L54.16-17.60L54.16-10.80L42.32-10.80L42.32-7.12Z M70.40 0.64Q66.92 0.64 63.62-0.14Q60.32-0.92 58.20-2.24L58.20-2.24L61.24-9.12Q63.24-7.96 65.72-7.26Q68.20-6.56 70.48-6.56L70.48-6.56Q72.44-6.56 73.28-6.94Q74.12-7.32 74.12-8.08L74.12-8.08Q74.12-8.96 73.02-9.40Q71.92-9.84 69.40-10.36L69.40-10.36Q66.16-11.04 64-11.82Q61.84-12.60 60.24-14.38Q58.64-16.16 58.64-19.20L58.64-19.20Q58.64-21.84 60.12-24Q61.60-26.16 64.54-27.40Q67.48-28.64 71.68-28.64L71.68-28.64Q74.56-28.64 77.34-28.02Q80.12-27.40 82.24-26.20L82.24-26.20L79.40-19.36Q75.28-21.44 71.60-21.44L71.60-21.44Q67.96-21.44 67.96-19.68L67.96-19.68Q67.96-18.84 69.04-18.42Q70.12-18 72.60-17.52L72.60-17.52Q75.80-16.92 78-16.14Q80.20-15.36 81.82-13.60Q83.44-11.84 83.44-8.80L83.44-8.80Q83.44-6.16 81.96-4.02Q80.48-1.88 77.54-0.62Q74.60 0.64 70.40 0.64L70.40 0.64Z M91.92 0L91.92-20.68L83.72-20.68L83.72-28L109.56-28L109.56-20.68L101.36-20.68L101.36 0L91.92 0Z M112 0L112-28L121.44-28L121.44 0L112 0Z M140.68 0.64Q136.16 0.64 132.56-1.24Q128.96-3.12 126.92-6.46Q124.88-9.80 124.88-14L124.88-14Q124.88-18.20 126.92-21.54Q128.96-24.88 132.56-26.76Q136.16-28.64 140.68-28.64L140.68-28.64Q145.20-28.64 148.80-26.76Q152.40-24.88 154.44-21.54Q156.48-18.20 156.48-14L156.48-14Q156.48-9.80 154.44-6.46Q152.40-3.12 148.80-1.24Q145.20 0.64 140.68 0.64L140.68 0.64ZM140.68-7Q142.44-7 143.86-7.86Q145.28-8.72 146.12-10.30Q146.96-11.88 146.96-14L146.96-14Q146.96-16.12 146.12-17.70Q145.28-19.28 143.86-20.14Q142.44-21 140.68-21L140.68-21Q138.92-21 137.50-20.14Q136.08-19.28 135.24-17.70Q134.40-16.12 134.40-14L134.40-14Q134.40-11.88 135.24-10.30Q136.08-8.72 137.50-7.86Q138.92-7 140.68-7L140.68-7Z M178.32-28L187.52-28L187.52 0L179.76 0L169.12-12.72L169.12 0L159.92 0L159.92-28L167.68-28L178.32-15.28L178.32-28Z M34.74 40.64Q30.30 40.64 26.74 38.78Q23.18 36.92 21.16 33.58Q19.14 30.24 19.14 26L19.14 26Q19.14 21.76 21.16 18.42Q23.18 15.08 26.74 13.22Q30.30 11.36 34.74 11.36L34.74 11.36Q38.82 11.36 42.02 12.80Q45.22 14.24 47.30 16.96L47.30 16.96L41.34 22.28Q38.74 19 35.22 19L35.22 19Q32.26 19 30.46 20.90Q28.66 22.80 28.66 26L28.66 26Q28.66 29.20 30.46 31.10Q32.26 33 35.22 33L35.22 33Q38.74 33 41.34 29.72L41.34 29.72L47.30 35.04Q45.22 37.76 42.02 39.20Q38.82 40.64 34.74 40.64L34.74 40.64Z M64.10 40.64Q59.58 40.64 55.98 38.76Q52.38 36.88 50.34 33.54Q48.30 30.20 48.30 26L48.30 26Q48.30 21.80 50.34 18.46Q52.38 15.12 55.98 13.24Q59.58 11.36 64.10 11.36L64.10 11.36Q68.62 11.36 72.22 13.24Q75.82 15.12 77.86 18.46Q79.90 21.80 79.90 26L79.90 26Q79.90 30.20 77.86 33.54Q75.82 36.88 72.22 38.76Q68.62 40.64 64.10 40.64L64.10 40.64ZM64.10 33Q65.86 33 67.28 32.14Q68.70 31.28 69.54 29.70Q70.38 28.12 70.38 26L70.38 26Q70.38 23.88 69.54 22.30Q68.70 20.72 67.28 19.86Q65.86 19 64.10 19L64.10 19Q62.34 19 60.92 19.86Q59.50 20.72 58.66 22.30Q57.82 23.88 57.82 26L57.82 26Q57.82 28.12 58.66 29.70Q59.50 31.28 60.92 32.14Q62.34 33 64.10 33L64.10 33Z M101.74 12L110.94 12L110.94 40L103.18 40L92.54 27.28L92.54 40L83.34 40L83.34 12L91.10 12L101.74 24.72L101.74 12Z M134.02 32.32L134.02 25.24L142.22 25.24L142.22 37.08Q139.74 38.80 136.46 39.72Q133.18 40.64 130.02 40.64L130.02 40.64Q125.54 40.64 121.98 38.78Q118.42 36.92 116.40 33.58Q114.38 30.24 114.38 26L114.38 26Q114.38 21.76 116.40 18.42Q118.42 15.08 122.04 13.22Q125.66 11.36 130.22 11.36L130.22 11.36Q134.34 11.36 137.60 12.74Q140.86 14.12 143.02 16.76L143.02 16.76L136.98 22.08Q134.34 19 130.70 19L130.70 19Q127.58 19 125.74 20.88Q123.90 22.76 123.90 26L123.90 26Q123.90 29.16 125.72 31.08Q127.54 33 130.58 33L130.58 33Q132.38 33 134.02 32.32L134.02 32.32Z M155.54 32.88L169.54 32.88L169.54 40L146.26 40L146.26 12L169.02 12L169.02 19.12L155.54 19.12L155.54 22.40L167.38 22.40L167.38 29.20L155.54 29.20L155.54 32.88ZM153.46 9.72L158.74 3.32L167.34 3.32L159.46 9.72L153.46 9.72Z"/></g>
</svg>
</g></svg></svg>